# xmcd
#
# Track frame offsets:
#	150
#	22131
#	37621
#	51844
#	68664
#	81630
#	96702
#	114329
#	129153
#	146778
#	160497
#	175587
#	189180
#	203603
#	218995
#	233303
#	249857
#	265410
#	279351
#	293120
#
# Disc length: 4125 seconds
#
# Revision: 1
# Processed by: cddbd v1.5.2PL0 Copyright (c) Steve Scherf et al.
# Submitted via: audiograbber 1.83.01
#
DISCID=18101b14
DTITLE=diverse - Herbst Romantik [CD1)
DYEAR=2006
DGENRE=Volksmusik
TTITLE0=Schürzenjäger  - Träume Sind Stärker
TTITLE1=Gaby Albrecht  - Gefühle Sterben Nicht
TTITLE2=Soviel Liebe Lebt In Dir  - Patrick Lindner 
TTITLE3=Mondscheinsonate - Stefanie Hertel 
TTITLE4=Ich Schenk' Dir Liebe - Vincent and Fernando
TTITLE5=Grosse Gefühle - Geraldine Olivier
TTITLE6=Ich Schwör' - Die Kastelruther Spatzen
TTITLE7=Gar Nix - Marianne and Michael
TTITLE8=Nockalm Quintett - Mein Zweites Leben
TTITLE9=Monika Martin - Eine Liebe Reicht Für Zwei
TTITLE10=Rudy Giovannini - Dann Ruf Ich Wieder Deinen Namen
TTITLE11=Wolfgang Herrmann - Du Mara Kayser
TTITLE12=Marc Pircher - Falls Du Mich Noch Liebst
TTITLE13=Nathalie Kollo  - Wenn Ich Jetzt Ein Kind Bekäme
TTITLE14=Judith and Mel - Die Liebe Bleibt Sieger
TTITLE15=Oswald Sattler - Eine Liebe Wie Ein Bergkristall
TTITLE16=Astrid Harzbecker - Die Liebe Lebt In Dir
TTITLE17=Stefan Mross  - I Schenk Dir Mein' Herzschlag
TTITLE18=Oliver Haidt - Und Dann Nimmst Du Mich In Deine Arme Marlena Martinell
TTITLE18=i 
TTITLE19=Geh'n Oder Bleiben  - Die Ursprung Buam
EXTD=
EXTT0=
EXTT1=
EXTT2=
EXTT3=
EXTT4=
EXTT5=
EXTT6=
EXTT7=
EXTT8=
EXTT9=
EXTT10=
EXTT11=
EXTT12=
EXTT13=
EXTT14=
EXTT15=
EXTT16=
EXTT17=
EXTT18=
EXTT19=
PLAYORDER=
